# xmcd
#
# Track frame offsets: 
#        182
#        15920
#        32015
#        47535
#        62080
#        78587
#        94380
#        110702
#        126872
#        140972
#
# Disc length: 2091 seconds
#
# Revision: 3
# Processed by: cddbd v1.5.2PL0 Copyright (c) Steve Scherf et al.
# Submitted via: ExactAudioCopy v1.1
#
DISCID=8808290a
DTITLE=South Sixty Five - Dream Large
DYEAR=2001
DGENRE=Country
TTITLE0=The Most Beautiful Girl
TTITLE1=Like An Angel
TTITLE2=I Swear To You
TTITLE3=Only Perfect
TTITLE4=All I Ever Did
TTITLE5=The Great Love of 1998
TTITLE6=One Moment
TTITLE7=Gettin' The Feelin'
TTITLE8=Even If
TTITLE9=Dream Large
EXTD=YEAR: 2001 ID3G:   2
EXTT0=
EXTT1=
EXTT2=
EXTT3=
EXTT4=
EXTT5=
EXTT6=
EXTT7=
EXTT8=
EXTT9=
PLAYORDER=
